<?xml version="1.0" encoding="UTF-8" standalone="no"?>
<!-- Created with Inkscape (http://www.inkscape.org/) -->

<svg
   width="210mm"
   height="297mm"
   viewBox="0 0 210 297"
   version="1.1"
   id="svg1"
   inkscape:version="1.4 (86a8ad7, 2024-10-11)"
   sodipodi:docname="CLASS_FINDER_ICONS.svg"
   xml:space="preserve"
   xmlns:inkscape="http://www.inkscape.org/namespaces/inkscape"
   xmlns:sodipodi="http://sodipodi.sourceforge.net/DTD/sodipodi-0.dtd"
   xmlns="http://www.w3.org/2000/svg"
   xmlns:svg="http://www.w3.org/2000/svg"><sodipodi:namedview
     id="namedview1"
     pagecolor="#ffffff"
     bordercolor="#000000"
     borderopacity="0.25"
     inkscape:showpageshadow="2"
     inkscape:pageopacity="0.0"
     inkscape:pagecheckerboard="0"
     inkscape:deskcolor="#d1d1d1"
     inkscape:document-units="mm"
     inkscape:zoom="2.8284271"
     inkscape:cx="657.43254"
     inkscape:cy="984.99975"
     inkscape:window-width="1440"
     inkscape:window-height="830"
     inkscape:window-x="-6"
     inkscape:window-y="-6"
     inkscape:window-maximized="1"
     inkscape:current-layer="layer1"
     showgrid="false" /><defs
     id="defs1"><filter
       inkscape:collect="always"
       style="color-interpolation-filters:sRGB"
       id="filter17"
       x="-0.2807059"
       y="-0.2807059"
       width="1.5614118"
       height="1.5614118"><feGaussianBlur
         inkscape:collect="always"
         stdDeviation="1.0867386"
         id="feGaussianBlur17" /></filter></defs><g
     inkscape:label="Layer 1"
     inkscape:groupmode="layer"
     id="layer1"><rect
       style="opacity:0.220974;mix-blend-mode:normal;fill:#000000;fill-opacity:1;stroke:#000000;stroke-width:12.5363;stroke-linecap:round;stroke-linejoin:round;stroke-dasharray:none;stroke-opacity:1;filter:url(#filter17)"
       id="rect19"
       width="31.621431"
       height="31.621431"
       x="135.95642"
       y="87.82061"
       ry="0"
       inkscape:export-filename="edit.svg"
       inkscape:export-xdpi="19.866842"
       inkscape:export-ydpi="19.866842" /><rect
       style="opacity:0.220974;mix-blend-mode:normal;fill:#000000;fill-opacity:1;stroke:#000000;stroke-width:12.5363;stroke-linecap:round;stroke-linejoin:round;stroke-dasharray:none;stroke-opacity:1;filter:url(#filter17)"
       id="rect18"
       width="31.621431"
       height="31.621431"
       x="77.086624"
       y="87.82061"
       ry="0"
       inkscape:export-filename="edit.svg"
       inkscape:export-xdpi="19.866842"
       inkscape:export-ydpi="19.866842" /><rect
       style="opacity:0.22097378;mix-blend-mode:normal;fill:#000000;fill-opacity:1;stroke:#000000;stroke-width:12.5363;stroke-linecap:round;stroke-linejoin:round;stroke-dasharray:none;stroke-opacity:1;filter:url(#filter17)"
       id="rect17"
       width="31.621431"
       height="31.621431"
       x="17.81996"
       y="87.82061"
       ry="0"
       inkscape:export-filename="edit.svg"
       inkscape:export-xdpi="19.866842"
       inkscape:export-ydpi="19.866842" /><rect
       style="opacity:0;fill:#8ddd27;fill-opacity:1;stroke:none;stroke-width:1.55732;stroke-linecap:round;stroke-linejoin:round;stroke-dasharray:none;stroke-opacity:0.252137"
       id="rect7"
       width="40.911999"
       height="40.911999"
       x="104.60329"
       y="17.992344"
       ry="0"
       inkscape:export-filename="edit.svg"
       inkscape:export-xdpi="19.866842"
       inkscape:export-ydpi="19.866842" /><rect
       style="fill:#588ae1;fill-opacity:1;stroke:none;stroke-width:4.61781;stroke-linecap:round;stroke-linejoin:round"
       id="rect2"
       width="502.63809"
       height="254.57613"
       x="0.10549363"
       y="169.71194"
       ry="1.7360256" /><rect
       style="opacity:0;fill:#8ddd27;fill-opacity:0.337607;stroke:none;stroke-width:1.55732;stroke-linecap:round;stroke-linejoin:round;stroke-dasharray:none;stroke-opacity:0.252137"
       id="rect6"
       width="40.911999"
       height="40.911999"
       x="37.116898"
       y="17.992321"
       ry="0"
       inkscape:export-filename="dropdown.svg"
       inkscape:export-xdpi="19.866842"
       inkscape:export-ydpi="19.866842" /><path
       id="rect1"
       style="fill:#ffffff;stroke:#ffffff;stroke-width:3.55713;stroke-linecap:round;stroke-linejoin:round"
       d="m 56.072157,206.78911 a 10.37155,10.37155 0 0 1 -1.216613,0.82385 10.37155,10.37155 0 0 1 -1.322345,0.64181 l 8.395572,14.54007 c 0.405956,0.70313 1.298732,0.94207 2.001868,0.53611 0.703136,-0.40596 0.942059,-1.29875 0.536103,-2.00188 z" /><circle
       style="fill:#ffffff;fill-opacity:0;stroke:#ffffff;stroke-width:4.6248;stroke-linecap:round;stroke-linejoin:round;stroke-dasharray:none;stroke-opacity:1"
       id="path1"
       cx="-56.300159"
       cy="196.85434"
       r="10.37155"
       transform="rotate(-29.999999)" /><text
       xml:space="preserve"
       style="font-style:normal;font-variant:normal;font-weight:bold;font-stretch:normal;font-size:110.283px;line-height:0;font-family:'Noto Sans KR';-inkscape-font-specification:'Noto Sans KR Bold';text-align:start;letter-spacing:4.04901px;writing-mode:lr-tb;direction:ltr;text-anchor:start;fill:#ffffff;fill-opacity:1;stroke:none;stroke-width:3.55713;stroke-linecap:round;stroke-linejoin:round"
       x="51.914062"
       y="242.61636"
       id="text2"><tspan
         sodipodi:role="line"
         id="tspan2"
         style="stroke-width:3.55713"
         x="51.914062"
         y="242.61636" /></text><rect
       style="fill:#f00000;fill-opacity:1;stroke:none;stroke-width:3.41344;stroke-linecap:round;stroke-linejoin:round;stroke-dasharray:none"
       id="rect3"
       width="5.9461694"
       height="39.993584"
       x="25.383696"
       y="184.71872"
       ry="3.4319317" /><rect
       style="fill:#f00000;fill-opacity:1;stroke:none;stroke-width:3.41344;stroke-linecap:round;stroke-linejoin:round;stroke-dasharray:none"
       id="rect8"
       width="4.1722784"
       height="39.486759"
       x="27.410995"
       y="232.36035"
       ry="2.0861392" /><rect
       style="fill:#ffffff;fill-opacity:1;stroke:none;stroke-width:3.41344;stroke-linecap:round;stroke-linejoin:round;stroke-dasharray:none"
       id="rect9"
       width="4.1722789"
       height="39.486759"
       x="242.55002"
       y="89.819504"
       ry="2.0861394"
       transform="rotate(45)" /><rect
       style="fill:#ffffff;fill-opacity:1;stroke:none;stroke-width:3.41344;stroke-linecap:round;stroke-linejoin:round;stroke-dasharray:none"
       id="rect10"
       width="4.1722789"
       height="39.486759"
       x="-111.64902"
       y="224.89279"
       ry="2.0861394"
       transform="rotate(-45)" /><rect
       style="fill:#f00000;fill-opacity:1;stroke:none;stroke-width:3.41344;stroke-linecap:round;stroke-linejoin:round;stroke-dasharray:none"
       id="rect4"
       width="4.1722784"
       height="39.486759"
       x="24.007296"
       y="19.41795"
       ry="2.0861392" /><path
       sodipodi:type="star"
       style="fill:#70767a;fill-opacity:1;stroke:#70767a;stroke-width:1.60741;stroke-linecap:round;stroke-linejoin:round;stroke-dasharray:none;stroke-opacity:1"
       id="path4"
       inkscape:flatsided="true"
       sodipodi:sides="3"
       sodipodi:cx="172.44313"
       sodipodi:cy="29.221432"
       sodipodi:r1="4.9970651"
       sodipodi:r2="2.4985325"
       sodipodi:arg1="1.5707963"
       sodipodi:arg2="2.6179939"
       inkscape:rounded="0"
       inkscape:randomized="0"
       d="m 172.44313,34.218497 -4.32758,-7.495598 8.65517,0 z"
       inkscape:transform-center-y="2.3432557"
       transform="matrix(1.5677502,0,0,1.8757072,-212.77486,-18.705712)"
       inkscape:transform-center-x="9.1416866e-06" /><path
       id="path5"
       style="fill:#afafaf;fill-opacity:1;stroke:#afafaf;stroke-width:2.64583;stroke-linecap:round;stroke-linejoin:round;stroke-dasharray:none;stroke-opacity:1"
       d="m 134.94992,27.986057 -12.15968,21.061192 -7.54268,4.263689 -0.0789,-8.663998 12.15969,-21.061193 z"
       sodipodi:nodetypes="cccccc" /><text
       xml:space="preserve"
       style="font-size:28.8802px;line-height:0;font-family:Heavitas;-inkscape-font-specification:Heavitas;text-align:start;letter-spacing:1.06032px;writing-mode:lr-tb;direction:ltr;text-anchor:start;fill:#ffffff;fill-opacity:1;stroke:none;stroke-width:0.931515;stroke-linecap:round;stroke-linejoin:round"
       x="71.96981"
       y="216.03615"
       id="text1"><tspan
         sodipodi:role="line"
         id="tspan1"
         style="font-style:normal;font-variant:normal;font-weight:bold;font-stretch:normal;font-family:'Noto Sans KR';-inkscape-font-specification:'Noto Sans KR Bold';fill:#ffffff;fill-opacity:1;stroke:none;stroke-width:0.931515"
         x="71.96981"
         y="216.03615">Find a course</tspan></text><rect
       style="opacity:1;fill:#f00000;fill-opacity:1;stroke:#f00000;stroke-width:12.5363;stroke-linecap:round;stroke-linejoin:round;stroke-dasharray:none;stroke-opacity:1"
       id="rect11"
       width="31.621431"
       height="31.621431"
       x="16.893919"
       y="86.497696"
       ry="0"
       inkscape:export-filename="class_marker_color.svg"
       inkscape:export-xdpi="18.40674"
       inkscape:export-ydpi="18.40674" /><path
       d="m 26.102694,115.79295 q -2.480314,0 -4.681155,-0.83841 -2.200842,-0.83842 -3.912608,-2.51525 -1.676832,-1.71176 -2.654984,-4.19208 -0.943218,-2.51525 -0.943218,-5.79904 0,-3.248864 0.978152,-5.764112 1.013086,-2.550182 2.724852,-4.296882 1.7467,-1.7467 3.982476,-2.654984 2.235775,-0.908284 4.716089,-0.908284 2.550182,0 4.54142,1.013086 2.026172,1.013086 3.353664,2.375512 L 30.95852,96.194982 Q 29.980368,95.286698 28.897414,94.727754 27.81446,94.16881 26.4171,94.16881 q -1.676832,0 -3.074192,0.978152 -1.397359,0.943218 -2.235775,2.759786 -0.803482,1.781634 -0.803482,4.331812 0,2.58512 0.733614,4.43662 0.768548,1.81657 2.130973,2.79472 1.362426,0.94322 3.178994,0.94322 1.57203,0 2.79472,-0.69868 1.257624,-0.69868 2.165908,-1.67683 l 3.283796,3.9126 q -1.641898,1.92137 -3.807806,2.89953 -2.130974,0.94321 -4.681156,0.94321 z m 12.296761,-0.48907 V 89.27805 h 6.253186 v 20.78573 H 54.7835 v 5.2401 z"
       id="text15"
       style="font-weight:900;font-size:34.934px;line-height:0;font-family:'Noto Sans KR';-inkscape-font-specification:'Noto Sans KR Heavy';letter-spacing:0px;fill:#ffffff;stroke-width:9.70387;stroke-linecap:round;stroke-linejoin:round"
       aria-label="CL"
       inkscape:export-filename="class_marker_color.svg"
       inkscape:export-xdpi="18.40674"
       inkscape:export-ydpi="18.40674" /><rect
       style="opacity:1;fill:#ffcc00;fill-opacity:1;stroke:#ffcc00;stroke-width:12.5363;stroke-linecap:round;stroke-linejoin:round;stroke-dasharray:none;stroke-opacity:1"
       id="rect15"
       width="31.621431"
       height="31.621431"
       x="75.956161"
       y="86.497696"
       ry="0"
       inkscape:export-filename="dept_marker_color.svg"
       inkscape:export-xdpi="18.40674"
       inkscape:export-ydpi="18.40674" /><path
       d="M 74.438652,113.50664 V 87.88646 h 7.359353 q 3.920403,0 6.809121,1.341191 2.923108,1.306801 4.539414,4.09235 1.616307,2.78555 1.616307,7.256189 0,4.43624 -1.616307,7.32496 -1.581917,2.85433 -4.436245,4.22991 -2.819939,1.37558 -6.568395,1.37558 z m 6.155721,-4.95209 h 0.825348 q 2.06337,0 3.645287,-0.72218 1.616306,-0.72218 2.510433,-2.47604 0.894127,-1.75387 0.894127,-4.78014 0,-3.06067 -0.894127,-4.745755 -0.894127,-1.685086 -2.510433,-2.338486 -1.581917,-0.68779 -3.645287,-0.68779 h -0.825348 z m 18.914228,4.95209 V 87.88646 h 16.231839 v 5.124036 h -10.07612 v 4.745751 h 8.56299 v 5.158423 h -8.56299 v 5.43354 h 10.45441 v 5.15843 z"
       id="text16"
       style="font-weight:900;font-size:34.3895px;line-height:0;font-family:'Noto Sans KR';-inkscape-font-specification:'Noto Sans KR Heavy';letter-spacing:0px;fill:#28170b;stroke-width:9.55262;stroke-linecap:round;stroke-linejoin:round"
       transform="scale(0.984413,1.0158338)"
       aria-label="DE"
       inkscape:export-filename="dept_marker_color.svg"
       inkscape:export-xdpi="18.40674"
       inkscape:export-ydpi="18.40674" /><rect
       style="opacity:1;fill:#0049bb;fill-opacity:1;stroke:#0049bb;stroke-width:12.5363;stroke-linecap:round;stroke-linejoin:round;stroke-dasharray:none;stroke-opacity:1"
       id="rect16"
       width="31.621431"
       height="31.621431"
       x="134.61757"
       y="86.497696"
       ry="0"
       inkscape:export-filename="edit.svg"
       inkscape:export-xdpi="19.866842"
       inkscape:export-ydpi="19.866842" /><path
       d="m 131.25813,115.30388 8.06975,-26.02583 h 7.47587 l 8.06976,26.02583 h -6.56759 l -3.24887,-12.99545 q -0.52401,-1.9563 -1.04802,-4.157144 -0.48907,-2.200842 -1.01308,-4.19208 h -0.13974 q -0.45414,2.026172 -0.97815,4.227014 -0.52401,2.16591 -1.01308,4.12221 l -3.24887,12.99545 z m 5.48463,-5.97371 v -4.8209 H 149.319 v 4.8209 z m 22.67213,5.97371 V 94.483216 h -7.02173 V 89.27805 h 20.33158 v 5.205166 h -7.05667 v 20.820664 z"
       id="text17"
       style="font-weight:900;font-size:34.934px;line-height:0;font-family:'Noto Sans KR';-inkscape-font-specification:'Noto Sans KR Heavy';letter-spacing:0px;fill:#ffffff;stroke-width:9.70387;stroke-linecap:round;stroke-linejoin:round"
       aria-label="AT"
       inkscape:export-filename="attr_marker_color.svg"
       inkscape:export-xdpi="18.40674"
       inkscape:export-ydpi="18.40674" /><rect
       style="opacity:0;fill:#f00000;fill-opacity:1;stroke:#f00000;stroke-width:12.5363;stroke-linecap:round;stroke-linejoin:round;stroke-dasharray:none;stroke-opacity:1"
       id="rect20"
       width="31.621431"
       height="31.621431"
       x="226.43323"
       y="86.497696"
       ry="0"
       inkscape:export-filename="class_marker.svg"
       inkscape:export-xdpi="18.40674"
       inkscape:export-ydpi="18.40674" /><path
       d="m 235.642,115.79295 q -2.48031,0 -4.68115,-0.83841 -2.20085,-0.83842 -3.91261,-2.51525 -1.67683,-1.71176 -2.65499,-4.19208 -0.94321,-2.51525 -0.94321,-5.79904 0,-3.248864 0.97815,-5.764112 1.01308,-2.550182 2.72485,-4.296882 1.7467,-1.7467 3.98248,-2.654984 2.23577,-0.908284 4.71609,-0.908284 2.55018,0 4.54142,1.013086 2.02617,1.013086 3.35366,2.375512 l -3.24886,3.982476 q -0.97815,-0.908284 -2.06111,-1.467228 -1.08295,-0.558944 -2.48031,-0.558944 -1.67683,0 -3.07419,0.978152 -1.39736,0.943218 -2.23578,2.759786 -0.80348,1.781634 -0.80348,4.331812 0,2.58512 0.73361,4.43662 0.76855,1.81657 2.13098,2.79472 1.36242,0.94322 3.17899,0.94322 1.57203,0 2.79472,-0.69868 1.25762,-0.69868 2.16591,-1.67683 l 3.28379,3.9126 q -1.64189,1.92137 -3.8078,2.89953 -2.13098,0.94321 -4.68116,0.94321 z m 12.29676,-0.48907 V 89.27805 h 6.25319 v 20.78573 h 10.13086 v 5.2401 z"
       id="text20"
       style="font-weight:900;font-size:34.934px;line-height:0;font-family:'Noto Sans KR';-inkscape-font-specification:'Noto Sans KR Heavy';letter-spacing:0px;fill:#70767a;stroke-width:9.70387;stroke-linecap:round;stroke-linejoin:round"
       aria-label="CL" /><rect
       style="opacity:0;fill:#ffcc00;fill-opacity:1;stroke:#ffcc00;stroke-width:12.5363;stroke-linecap:round;stroke-linejoin:round;stroke-dasharray:none;stroke-opacity:1"
       id="rect21"
       width="31.621431"
       height="31.621431"
       x="285.49548"
       y="86.497696"
       ry="0"
       inkscape:export-filename="dept_marker.svg"
       inkscape:export-xdpi="18.40674"
       inkscape:export-ydpi="18.40674" /><path
       d="M 287.29575,113.50664 V 87.88646 h 7.35936 q 3.9204,0 6.80912,1.341191 2.92311,1.306801 4.53941,4.09235 1.61631,2.78555 1.61631,7.256189 0,4.43624 -1.61631,7.32496 -1.58192,2.85433 -4.43624,4.22991 -2.81994,1.37558 -6.5684,1.37558 z m 6.15572,-4.95209 h 0.82535 q 2.06337,0 3.64529,-0.72218 1.61631,-0.72218 2.51043,-2.47604 0.89413,-1.75387 0.89413,-4.78014 0,-3.06067 -0.89413,-4.745755 -0.89412,-1.685086 -2.51043,-2.338486 -1.58192,-0.68779 -3.64529,-0.68779 h -0.82535 z m 18.91423,4.95209 V 87.88646 h 16.23185 v 5.124036 h -10.07613 v 4.745751 h 8.56299 v 5.158423 h -8.56299 v 5.43354 h 10.45441 v 5.15843 z"
       id="text21"
       style="font-weight:900;font-size:34.3895px;line-height:0;font-family:'Noto Sans KR';-inkscape-font-specification:'Noto Sans KR Heavy';letter-spacing:0px;fill:#70767a;stroke-width:9.55262;stroke-linecap:round;stroke-linejoin:round"
       transform="scale(0.984413,1.0158338)"
       aria-label="DE" /><rect
       style="opacity:0;fill:#0049bb;fill-opacity:1;stroke:#0049bb;stroke-width:12.5363;stroke-linecap:round;stroke-linejoin:round;stroke-dasharray:none;stroke-opacity:1"
       id="rect22"
       width="31.621431"
       height="31.621431"
       x="344.15689"
       y="86.497696"
       ry="0"
       inkscape:export-filename="attr_marker.svg"
       inkscape:export-xdpi="18.316498"
       inkscape:export-ydpi="18.316498" /><path
       d="m 340.79743,115.30388 8.06976,-26.02583 h 7.47587 l 8.06976,26.02583 h -6.5676 l -3.24886,-12.99545 q -0.52401,-1.9563 -1.04802,-4.157144 -0.48907,-2.200842 -1.01308,-4.19208 h -0.13974 q -0.45414,2.026172 -0.97815,4.227014 -0.52401,2.16591 -1.01309,4.12221 l -3.24886,12.99545 z m 5.48464,-5.97371 v -4.8209 h 12.57624 v 4.8209 z m 22.67213,5.97371 V 94.483216 h -7.02174 V 89.27805 h 20.33159 v 5.205166 h -7.05667 v 20.820664 z"
       id="text22"
       style="font-weight:900;font-size:34.934px;line-height:0;font-family:'Noto Sans KR';-inkscape-font-specification:'Noto Sans KR Heavy';letter-spacing:0px;fill:#70767a;stroke-width:9.70387;stroke-linecap:round;stroke-linejoin:round"
       aria-label="AT" /><path
       style="font-style:italic;font-weight:bold;font-size:38.1px;line-height:0;font-family:'Palatino Linotype';-inkscape-font-specification:'Palatino Linotype Bold';letter-spacing:0px;fill:#e6eaee;fill-opacity:1;stroke:none;stroke-width:0.264583;stroke-linecap:round;stroke-linejoin:round;stroke-opacity:1"
       d="m 146.59825,248.06093 c 0,-0.76895 0.24184,-1.42627 0.72554,-1.97197 0.48368,-0.54571 1.1038,-0.81856 1.86035,-0.81856 0.64492,0 1.15341,0.19844 1.52549,0.59532 0.37206,0.38447 0.5581,0.88676 0.5581,1.50688 0,0.75654 -0.22324,1.44487 -0.66972,2.06499 -0.44649,0.60771 -1.07281,0.91157 -1.87896,0.91157 -0.75654,0 -1.30225,-0.21704 -1.63711,-0.65112 -0.32246,-0.43408 -0.48369,-0.97979 -0.48369,-1.63711 z m -5.56087,10.24062 -0.37207,-0.65112 0.0372,-0.24185 c 2.18281,-1.69912 3.88194,-2.90215 5.09737,-3.60908 1.22783,-0.70693 2.18281,-1.0604 2.86494,-1.0604 0.31005,0 0.5767,0.13643 0.79995,0.40928 0.22324,0.26045 0.33486,0.59531 0.33486,1.00459 0,0.5457 -0.0992,1.23403 -0.29765,2.06499 -0.18604,0.83095 -0.58912,2.40605 -1.20923,4.72529 -1.07901,3.99355 -1.61851,6.30659 -1.61851,6.93911 0,0.17363 0.0496,0.32866 0.14883,0.46509 0.11162,0.12403 0.23564,0.18604 0.37207,0.18604 0.37207,0 1.36425,-0.57671 2.97656,-1.73013 l 0.22324,0.0186 0.40928,0.74414 -0.0744,0.24185 c -0.86817,0.62011 -1.90376,1.33325 -3.10679,2.1394 -1.20303,0.79375 -2.06499,1.28985 -2.58589,1.48828 -0.50849,0.19844 -0.95498,0.29766 -1.33945,0.29766 -0.48369,0 -0.84336,-0.17983 -1.07901,-0.5395 -0.23564,-0.35967 -0.35346,-0.82476 -0.35346,-1.39527 0,-0.57051 0.0682,-1.21543 0.20464,-1.93476 0.14883,-0.73174 0.45888,-1.99058 0.93017,-3.77651 1.0418,-3.98115 1.5627,-6.3252 1.5627,-7.03213 0,-0.34727 -0.14263,-0.5209 -0.42788,-0.5209 -0.47129,0 -1.5503,0.59531 -3.23701,1.78594 z"
       id="text3"
       aria-label="i"
       inkscape:export-filename="help.svg"
       inkscape:export-xdpi="30.714714"
       inkscape:export-ydpi="30.714714"
       sodipodi:nodetypes="ssscscscsccccscsccscsccccccsssccsscc" /><g
       id="g32"
       inkscape:export-filename="settings.svg"
       inkscape:export-xdpi="26.706057"
       inkscape:export-ydpi="26.706057"
       style="fill:#a1a9c3;fill-opacity:1;stroke:#a1a9c3;stroke-opacity:1"><path
         id="path6"
         style="opacity:1;fill:#a1a9c3;fill-opacity:1;stroke:#a1a9c3;stroke-width:0.264583;stroke-linecap:round;stroke-linejoin:round;stroke-dasharray:none;stroke-opacity:1"
         d="M 183.48699 247.14409 A 10.523738 10.523738 0 0 0 172.9636 257.66799 A 10.523738 10.523738 0 0 0 183.48699 268.19138 A 10.523738 10.523738 0 0 0 194.0109 257.66799 A 10.523738 10.523738 0 0 0 183.48699 247.14409 z M 183.48699 252.84658 A 4.8215251 4.8215251 0 0 1 188.30892 257.66799 A 4.8215251 4.8215251 0 0 1 183.48699 262.4894 A 4.8215251 4.8215251 0 0 1 178.66558 257.66799 A 4.8215251 4.8215251 0 0 1 183.48699 252.84658 z " /><path
         id="rect12"
         style="opacity:1;fill:#a1a9c3;stroke:#a1a9c3;stroke-width:1.26207;stroke-linecap:round;stroke-linejoin:round;stroke-dasharray:none;fill-opacity:1;stroke-opacity:1"
         inkscape:transform-center-x="-1.6689301e-06"
         inkscape:transform-center-y="-10.246092"
         d="m 181.25936,243.08124 h 4.45571 l 0.34707,8.12579 h -5.14985 z"
         sodipodi:nodetypes="ccccc" /><path
         id="path26"
         style="opacity:1;fill:#a1a9c3;stroke:#a1a9c3;stroke-width:1.26207;stroke-linecap:round;stroke-linejoin:round;stroke-dasharray:none;fill-opacity:1;stroke-opacity:1"
         inkscape:transform-center-x="-10.523595"
         inkscape:transform-center-y="-4e-05"
         d="m 198.07374,255.43984 v 4.45571 l -8.12579,0.34707 v -5.14985 z"
         sodipodi:nodetypes="ccccc" /><path
         id="path27"
         style="opacity:1;fill:#a1a9c3;stroke:#a1a9c3;stroke-width:1.26207;stroke-linecap:round;stroke-linejoin:round;stroke-dasharray:none;fill-opacity:1;stroke-opacity:1"
         inkscape:transform-center-x="-7.31857"
         inkscape:transform-center-y="-7.318625"
         d="m 192.2261,245.77817 3.15066,3.15066 -5.50039,5.99122 -3.64149,-3.64149 z"
         sodipodi:nodetypes="ccccc" /><path
         id="path28"
         style="opacity:1;fill:#a1a9c3;stroke:#a1a9c3;stroke-width:1.26207;stroke-linecap:round;stroke-linejoin:round;stroke-dasharray:none;fill-opacity:1;stroke-opacity:1"
         inkscape:transform-center-x="7.318625"
         inkscape:transform-center-y="-7.318575"
         d="m 171.59769,248.92888 3.15065,-3.15066 5.99122,5.50039 -3.64149,3.64149 z"
         sodipodi:nodetypes="ccccc" /><path
         id="path29"
         style="opacity:1;fill:#a1a9c3;stroke:#a1a9c3;stroke-width:1.26207;stroke-linecap:round;stroke-linejoin:round;stroke-dasharray:none;fill-opacity:1;stroke-opacity:1"
         inkscape:transform-center-x="10.5236"
         inkscape:transform-center-y="4e-05"
         d="m 168.90076,259.89562 -1e-5,-4.4557 8.1258,-0.34707 v 5.14985 z"
         sodipodi:nodetypes="ccccc" /><path
         id="path30"
         style="opacity:1;fill:#a1a9c3;stroke:#a1a9c3;stroke-width:1.26207;stroke-linecap:round;stroke-linejoin:round;stroke-dasharray:none;fill-opacity:1;stroke-opacity:1"
         inkscape:transform-center-x="7.318575"
         inkscape:transform-center-y="7.31862"
         d="m 174.7484,269.55729 -3.15067,-3.15065 5.5004,-5.99122 3.64149,3.64149 z"
         sodipodi:nodetypes="ccccc" /><path
         id="path31"
         style="opacity:1;fill:#a1a9c3;stroke:#a1a9c3;stroke-width:1.26207;stroke-linecap:round;stroke-linejoin:round;stroke-dasharray:none;fill-opacity:1;stroke-opacity:1"
         inkscape:transform-center-x="-4e-05"
         inkscape:transform-center-y="10.523595"
         d="m 185.71513,272.25422 -4.4557,1e-5 -0.34706,-8.1258 h 5.14984 z"
         sodipodi:nodetypes="ccccc" /><path
         id="path32"
         style="opacity:1;fill:#a1a9c3;stroke:#a1a9c3;stroke-width:1.26207;stroke-linecap:round;stroke-linejoin:round;stroke-dasharray:none;fill-opacity:1;stroke-opacity:1"
         inkscape:transform-center-x="-7.31862"
         inkscape:transform-center-y="7.31857"
         d="m 195.3768,266.40659 -3.15065,3.15066 -5.99121,-5.5004 3.64148,-3.64149 z"
         sodipodi:nodetypes="ccccc" /></g></g></svg>
