<?xml version="1.0" encoding="UTF-8" standalone="no"?>
<!-- Created with Inkscape (http://www.inkscape.org/) -->

<svg
   width="44.620758mm"
   height="44.157738mm"
   viewBox="0 0 44.620758 44.157738"
   version="1.1"
   id="svg1"
   inkscape:version="1.4 (86a8ad7, 2024-10-11)"
   sodipodi:docname="CLASS_FINDER_ICONS.svg"
   xml:space="preserve"
   xmlns:inkscape="http://www.inkscape.org/namespaces/inkscape"
   xmlns:sodipodi="http://sodipodi.sourceforge.net/DTD/sodipodi-0.dtd"
   xmlns="http://www.w3.org/2000/svg"
   xmlns:svg="http://www.w3.org/2000/svg"><sodipodi:namedview
     id="namedview1"
     pagecolor="#ffffff"
     bordercolor="#000000"
     borderopacity="0.25"
     inkscape:showpageshadow="2"
     inkscape:pageopacity="0.0"
     inkscape:pagecheckerboard="0"
     inkscape:deskcolor="#d1d1d1"
     inkscape:document-units="mm"
     inkscape:zoom="0.35355339"
     inkscape:cx="394.56558"
     inkscape:cy="735.39105"
     inkscape:window-width="1440"
     inkscape:window-height="830"
     inkscape:window-x="-6"
     inkscape:window-y="-6"
     inkscape:window-maximized="1"
     inkscape:current-layer="layer1"
     showgrid="false"><inkscape:page
       x="0"
       y="0"
       width="44.620758"
       height="44.157738"
       id="page2"
       margin="0"
       bleed="0" /></sodipodi:namedview><defs
     id="defs1" /><g
     inkscape:label="Layer 1"
     inkscape:groupmode="layer"
     id="layer1"
     transform="translate(-279.22733,-80.229544)"><rect
       style="opacity:0;fill:#ffcc00;fill-opacity:1;stroke:#ffcc00;stroke-width:12.5363;stroke-linecap:round;stroke-linejoin:round;stroke-dasharray:none;stroke-opacity:1"
       id="rect21"
       width="31.621431"
       height="31.621431"
       x="285.49548"
       y="86.497696"
       ry="0"
       inkscape:export-filename="dept_marker.svg"
       inkscape:export-xdpi="18.40674"
       inkscape:export-ydpi="18.40674" /><path
       d="M 287.29575,113.50664 V 87.88646 h 7.35936 q 3.9204,0 6.80912,1.341191 2.92311,1.306801 4.53941,4.09235 1.61631,2.78555 1.61631,7.256189 0,4.43624 -1.61631,7.32496 -1.58192,2.85433 -4.43624,4.22991 -2.81994,1.37558 -6.5684,1.37558 z m 6.15572,-4.95209 h 0.82535 q 2.06337,0 3.64529,-0.72218 1.61631,-0.72218 2.51043,-2.47604 0.89413,-1.75387 0.89413,-4.78014 0,-3.06067 -0.89413,-4.745755 -0.89412,-1.685086 -2.51043,-2.338486 -1.58192,-0.68779 -3.64529,-0.68779 h -0.82535 z m 18.91423,4.95209 V 87.88646 h 16.23185 v 5.124036 h -10.07613 v 4.745751 h 8.56299 v 5.158423 h -8.56299 v 5.43354 h 10.45441 v 5.15843 z"
       id="text21"
       style="font-weight:900;font-size:34.3895px;line-height:0;font-family:'Noto Sans KR';-inkscape-font-specification:'Noto Sans KR Heavy';letter-spacing:0px;fill:#70767a;stroke-width:9.55262;stroke-linecap:round;stroke-linejoin:round"
       transform="scale(0.984413,1.0158338)"
       aria-label="DE" /></g></svg>
