<?xml version="1.0" encoding="UTF-8" standalone="no"?>
<!-- Created with Inkscape (http://www.inkscape.org/) -->

<svg
   width="21.549082mm"
   height="27.497288mm"
   viewBox="0 0 21.549082 27.497288"
   version="1.1"
   id="svg1"
   xmlns="http://www.w3.org/2000/svg"
   xmlns:svg="http://www.w3.org/2000/svg">
  <defs
     id="defs1" />
  <g
     id="layer1"
     transform="translate(-132.91103,-155.71897)">
    <path
       id="path5"
       style="stroke-linecap:round;stroke-linejoin:round"
       d="m 143.68694,174.06316 c 0.911,-5.7e-4 1.64906,-0.73955 1.64848,-1.65055 v -11.06454 l 1.74563,1.74614 c 0.6441,0.64378 1.68805,0.64378 2.33216,0 0.64377,-0.6441 0.64377,-1.68805 0,-2.33215 l -4.56045,-4.56252 c -0.0321,-0.0294 -0.0654,-0.0575 -0.0997,-0.0842 -0.0137,-0.0119 -0.0277,-0.0236 -0.0418,-0.0351 -0.11479,-0.0917 -0.24131,-0.16763 -0.37621,-0.22582 -0.0152,-0.006 -0.0306,-0.012 -0.046,-0.0176 -0.14096,-0.057 -0.28913,-0.0942 -0.44028,-0.11059 -0.15547,-0.0147 -0.31224,-0.007 -0.46561,0.0222 -0.008,10e-4 -0.0169,0.003 -0.0253,0.004 -0.14639,0.0308 -0.2879,0.0814 -0.42065,0.15038 -0.0158,0.008 -0.0315,0.016 -0.047,0.0243 -0.12751,0.0703 -0.24515,0.1572 -0.34985,0.25839 -0.007,0.005 -0.0131,0.01 -0.0196,0.0145 l -4.56251,4.56252 c -0.64377,0.6441 -0.64377,1.68805 0,2.33215 0.64434,0.64515 1.68988,0.64515 2.33422,0 l 1.74408,-1.74408 v 11.06248 c -5.8e-4,0.91181 0.73874,1.65113 1.65055,1.65055 z" />
    <path
       id="path6"
       style="stroke-linecap:round;stroke-linejoin:round"
       d="m 136.64774,165.03334 c -2.04102,0 -3.73672,1.69312 -3.73672,3.73414 v 10.71206 c 0,2.04102 1.6957,3.73672 3.73672,3.73672 h 14.07614 c 2.04102,0 3.73621,-1.6957 3.73621,-3.73672 v -10.71206 c 0,-2.04102 -1.69519,-3.73414 -3.73621,-3.73414 h -4.17183 v 3.2985 h 4.17183 c 0.27042,0 0.43719,0.16521 0.43719,0.43564 v 10.71206 c 0,0.27043 -0.16677,0.4377 -0.43719,0.4377 h -14.07614 c -0.27043,0 -0.43563,-0.16727 -0.43563,-0.4377 v -10.71206 c 0,-0.27043 0.1652,-0.43564 0.43563,-0.43564 h 4.17184 v -3.2985 z" />
  </g>
</svg>
