<?xml version="1.0" encoding="UTF-8" standalone="no"?>
<!-- Created with Inkscape (http://www.inkscape.org/) -->

<svg
   width="11.14764mm"
   height="28.037565mm"
   viewBox="0 0 11.14764 28.037565"
   version="1.1"
   id="svg1"
   xmlns="http://www.w3.org/2000/svg"
   xmlns:svg="http://www.w3.org/2000/svg">
  <defs
     id="defs1" />
  <g
     id="layer1"
     transform="translate(-186.17365,-245.16335)">
    <path
       style="font-style:italic;font-weight:bold;font-size:38.1px;line-height:0;font-family:'Palatino Linotype';-inkscape-font-specification:'Palatino Linotype Bold';letter-spacing:0px;fill:#ffffff;stroke:#ffffff;stroke-width:0.264583;stroke-linecap:round;stroke-linejoin:round"
       d="m 192.51951,248.08615 q 0,-1.15342 0.72554,-1.97197 0.72553,-0.81856 1.86035,-0.81856 0.96738,0 1.52549,0.59532 0.5581,0.57671 0.5581,1.50688 0,1.13482 -0.66972,2.06499 -0.66973,0.91157 -1.87896,0.91157 -1.13481,0 -1.63711,-0.65112 -0.48369,-0.65112 -0.48369,-1.63711 z m -5.8415,11.27373 -0.37207,-0.65112 0.0372,-0.24185 q 3.27422,-2.54868 5.09737,-3.60908 1.84174,-1.0604 2.86494,-1.0604 0.46508,0 0.79995,0.40928 0.33486,0.39067 0.33486,1.00459 0,0.81855 -0.29765,2.06499 -0.27906,1.24643 -1.20923,4.72529 -1.61851,5.99033 -1.61851,6.93911 0,0.26045 0.14883,0.46509 0.16743,0.18604 0.37207,0.18604 0.5581,0 2.97656,-1.73013 l 0.22324,0.0186 0.40928,0.74414 -0.0744,0.24185 q -1.30225,0.93017 -3.10679,2.1394 -1.80454,1.19063 -2.58589,1.48828 -0.76274,0.29766 -1.33945,0.29766 -0.72554,0 -1.07901,-0.5395 -0.35346,-0.5395 -0.35346,-1.39527 0,-0.85576 0.20464,-1.93476 0.22324,-1.09761 0.93017,-3.77651 1.5627,-5.97173 1.5627,-7.03213 0,-0.5209 -0.42788,-0.5209 -0.70694,0 -3.23701,1.78594 z m 2.53007,13.84102 z"
       id="text3"
       aria-label="i" />
  </g>
</svg>
