<?xml version="1.0" encoding="UTF-8" standalone="no"?>
<!-- Created with Inkscape (http://www.inkscape.org/) -->

<svg
   width="10.60242mm"
   height="26.462889mm"
   viewBox="0 0 10.60242 26.462889"
   version="1.1"
   id="svg1"
   inkscape:version="1.4 (86a8ad7, 2024-10-11)"
   sodipodi:docname="CLASS_FINDER_ICONS.svg"
   xml:space="preserve"
   xmlns:inkscape="http://www.inkscape.org/namespaces/inkscape"
   xmlns:sodipodi="http://sodipodi.sourceforge.net/DTD/sodipodi-0.dtd"
   xmlns="http://www.w3.org/2000/svg"
   xmlns:svg="http://www.w3.org/2000/svg"><sodipodi:namedview
     id="namedview1"
     pagecolor="#ffffff"
     bordercolor="#000000"
     borderopacity="0.25"
     inkscape:showpageshadow="2"
     inkscape:pageopacity="0.0"
     inkscape:pagecheckerboard="0"
     inkscape:deskcolor="#d1d1d1"
     inkscape:document-units="mm"
     inkscape:zoom="2.8284271"
     inkscape:cx="657.43254"
     inkscape:cy="984.99975"
     inkscape:window-width="1440"
     inkscape:window-height="830"
     inkscape:window-x="-6"
     inkscape:window-y="-6"
     inkscape:window-maximized="1"
     inkscape:current-layer="layer1"
     showgrid="false"><inkscape:page
       x="-1.1734464e-12"
       y="0"
       width="10.602421"
       height="26.462889"
       id="page2"
       margin="0"
       bleed="0" /></sodipodi:namedview><defs
     id="defs1" /><g
     inkscape:label="Layer 1"
     inkscape:groupmode="layer"
     id="layer1"
     transform="translate(-140.66531,-245.2704)"><path
       style="font-style:italic;font-weight:bold;font-size:38.1px;line-height:0;font-family:'Palatino Linotype';-inkscape-font-specification:'Palatino Linotype Bold';letter-spacing:0px;fill:#e6eaee;fill-opacity:1;stroke:none;stroke-width:0.264583;stroke-linecap:round;stroke-linejoin:round;stroke-opacity:1"
       d="m 146.59825,248.06093 c 0,-0.76895 0.24184,-1.42627 0.72554,-1.97197 0.48368,-0.54571 1.1038,-0.81856 1.86035,-0.81856 0.64492,0 1.15341,0.19844 1.52549,0.59532 0.37206,0.38447 0.5581,0.88676 0.5581,1.50688 0,0.75654 -0.22324,1.44487 -0.66972,2.06499 -0.44649,0.60771 -1.07281,0.91157 -1.87896,0.91157 -0.75654,0 -1.30225,-0.21704 -1.63711,-0.65112 -0.32246,-0.43408 -0.48369,-0.97979 -0.48369,-1.63711 z m -5.56087,10.24062 -0.37207,-0.65112 0.0372,-0.24185 c 2.18281,-1.69912 3.88194,-2.90215 5.09737,-3.60908 1.22783,-0.70693 2.18281,-1.0604 2.86494,-1.0604 0.31005,0 0.5767,0.13643 0.79995,0.40928 0.22324,0.26045 0.33486,0.59531 0.33486,1.00459 0,0.5457 -0.0992,1.23403 -0.29765,2.06499 -0.18604,0.83095 -0.58912,2.40605 -1.20923,4.72529 -1.07901,3.99355 -1.61851,6.30659 -1.61851,6.93911 0,0.17363 0.0496,0.32866 0.14883,0.46509 0.11162,0.12403 0.23564,0.18604 0.37207,0.18604 0.37207,0 1.36425,-0.57671 2.97656,-1.73013 l 0.22324,0.0186 0.40928,0.74414 -0.0744,0.24185 c -0.86817,0.62011 -1.90376,1.33325 -3.10679,2.1394 -1.20303,0.79375 -2.06499,1.28985 -2.58589,1.48828 -0.50849,0.19844 -0.95498,0.29766 -1.33945,0.29766 -0.48369,0 -0.84336,-0.17983 -1.07901,-0.5395 -0.23564,-0.35967 -0.35346,-0.82476 -0.35346,-1.39527 0,-0.57051 0.0682,-1.21543 0.20464,-1.93476 0.14883,-0.73174 0.45888,-1.99058 0.93017,-3.77651 1.0418,-3.98115 1.5627,-6.3252 1.5627,-7.03213 0,-0.34727 -0.14263,-0.5209 -0.42788,-0.5209 -0.47129,0 -1.5503,0.59531 -3.23701,1.78594 z"
       id="text3"
       aria-label="i"
       inkscape:export-filename="help.svg"
       inkscape:export-xdpi="28.989679"
       inkscape:export-ydpi="28.989679"
       sodipodi:nodetypes="ssscscscsccccscsccscsccccccsssccsscc" /></g></svg>
