<?xml version="1.0" encoding="UTF-8" standalone="no"?>
<!-- Created with Inkscape (http://www.inkscape.org/) -->

<svg
   width="21.549072mm"
   height="24.414175mm"
   viewBox="0 0 21.549072 24.414175"
   version="1.1"
   id="svg1"
   xmlns="http://www.w3.org/2000/svg"
   xmlns:svg="http://www.w3.org/2000/svg">
  <defs
     id="defs1" />
  <g
     id="layer1"
     transform="translate(-90.33764,-158.80208)">
    <path
       id="path1"
       style="stroke-linecap:round;stroke-linejoin:round"
       d="m 101.11114,158.80254 c -0.911,5.7e-4 -1.649054,0.73955 -1.648477,1.65055 v 11.06454 l -0.894477,-0.85019 c -0.644104,-0.64378 -1.688054,-0.64378 -2.332158,0 -0.64377,0.6441 -0.64377,1.68805 0,2.33215 l 3.709293,3.66657 c 0.03212,0.0294 0.0654,0.0575 0.09974,0.0842 0.0137,0.0119 0.0277,0.0236 0.0418,0.0351 0.11479,0.0917 0.24131,0.16763 0.37621,0.22582 0.0152,0.006 0.0306,0.012 0.046,0.0176 0.14096,0.057 0.28913,0.0942 0.44028,0.11059 0.15547,0.0147 0.31224,0.007 0.46561,-0.0222 0.008,-0.001 0.0169,-0.003 0.0253,-0.004 0.14639,-0.0308 0.2879,-0.0814 0.42065,-0.15038 0.0158,-0.008 0.0315,-0.016 0.047,-0.0243 0.12751,-0.0703 0.24515,-0.1572 0.34985,-0.25839 0.007,-0.005 0.0131,-0.01 0.0196,-0.0145 l 3.80095,-3.66657 c 0.64377,-0.6441 0.64377,-1.68805 0,-2.33215 -0.64434,-0.64515 -1.68988,-0.64515 -2.33422,0 l -0.98252,0.84813 v -11.06248 c 5.8e-4,-0.91181 -0.73874,-1.65113 -1.65055,-1.65055 z" />
    <path
       id="rect3"
       style="stroke-linecap:round;stroke-linejoin:round"
       d="m 94.074361,165.03334 c -2.041017,0 -3.736723,1.69312 -3.736723,3.73414 v 10.71206 c 0,2.04102 1.695706,3.73672 3.736723,3.73672 H 108.1505 c 2.04102,0 3.73621,-1.6957 3.73621,-3.73672 v -10.71206 c 0,-2.04102 -1.69519,-3.73414 -3.73621,-3.73414 h -4.17183 v 3.2985 h 4.17183 c 0.27042,0 0.43719,0.16521 0.43719,0.43564 v 10.71206 c 0,0.27043 -0.16677,0.4377 -0.43719,0.4377 H 94.074361 c -0.270425,0 -0.435632,-0.16727 -0.435632,-0.4377 v -10.71206 c 0,-0.27043 0.165207,-0.43564 0.435632,-0.43564 H 98.2462 v -3.2985 z" />
  </g>
</svg>
