<?xml version="1.0" encoding="UTF-8" standalone="no"?>
<!-- Created with Inkscape (http://www.inkscape.org/) -->

<svg
   width="297mm"
   height="210mm"
   viewBox="0 0 297 210"
   version="1.1"
   id="svg1"
   inkscape:version="1.4 (86a8ad7, 2024-10-11)"
   sodipodi:docname="pnuts.svg"
   inkscape:export-filename="pnuts_logo.svg"
   inkscape:export-xdpi="58.269882"
   inkscape:export-ydpi="58.269882"
   xmlns:inkscape="http://www.inkscape.org/namespaces/inkscape"
   xmlns:sodipodi="http://sodipodi.sourceforge.net/DTD/sodipodi-0.dtd"
   xmlns:xlink="http://www.w3.org/1999/xlink"
   xmlns="http://www.w3.org/2000/svg"
   xmlns:svg="http://www.w3.org/2000/svg">
  <sodipodi:namedview
     id="namedview1"
     pagecolor="#ffffff"
     bordercolor="#000000"
     borderopacity="0.25"
     inkscape:showpageshadow="2"
     inkscape:pageopacity="0.0"
     inkscape:pagecheckerboard="0"
     inkscape:deskcolor="#d1d1d1"
     inkscape:document-units="mm"
     inkscape:zoom="1.0440797"
     inkscape:cx="398.91591"
     inkscape:cy="604.36"
     inkscape:window-width="1440"
     inkscape:window-height="830"
     inkscape:window-x="-6"
     inkscape:window-y="-6"
     inkscape:window-maximized="1"
     inkscape:current-layer="layer1"
     showgrid="false" />
  <defs
     id="defs1">
    <linearGradient
       id="linearGradient35"
       inkscape:collect="always">
      <stop
         style="stop-color:#6faae7;stop-opacity:1;"
         offset="0"
         id="stop35" />
      <stop
         style="stop-color:#e0dacd;stop-opacity:1;"
         offset="1"
         id="stop36" />
    </linearGradient>
    <linearGradient
       id="linearGradient14"
       inkscape:collect="always">
      <stop
         style="stop-color:#cf975c;stop-opacity:1;"
         offset="0"
         id="stop12" />
      <stop
         style="stop-color:#c08e55;stop-opacity:1;"
         offset="0.60213089"
         id="stop13" />
      <stop
         style="stop-color:#4d4d4d;stop-opacity:1;"
         offset="1"
         id="stop14" />
    </linearGradient>
    <linearGradient
       id="linearGradient8"
       inkscape:collect="always">
      <stop
         style="stop-color:#cf975c;stop-opacity:1;"
         offset="0"
         id="stop8" />
      <stop
         style="stop-color:#c08e55;stop-opacity:1;"
         offset="0.5562914"
         id="stop10" />
      <stop
         style="stop-color:#82775d;stop-opacity:1;"
         offset="1"
         id="stop9" />
    </linearGradient>
    <radialGradient
       inkscape:collect="always"
       xlink:href="#linearGradient8"
       id="radialGradient9"
       cx="-64.013779"
       cy="150.25983"
       fx="-64.013779"
       fy="150.25983"
       r="22.411146"
       gradientTransform="matrix(-1.1669243,0.00969529,-0.01038585,-1.2500415,-7.7719135,291.0751)"
       gradientUnits="userSpaceOnUse" />
    <radialGradient
       inkscape:collect="always"
       xlink:href="#linearGradient14"
       id="radialGradient12"
       cx="-34.918648"
       cy="158.0132"
       fx="-34.918648"
       fy="158.0132"
       r="23.805077"
       gradientTransform="matrix(-1.3733844,0,1.1605539e-8,-1.1065069,23.024183,274.7779)"
       gradientUnits="userSpaceOnUse" />
    <linearGradient
       inkscape:collect="always"
       xlink:href="#linearGradient35"
       id="linearGradient36"
       x1="95.965589"
       y1="110.16132"
       x2="259.64339"
       y2="110.16132"
       gradientUnits="userSpaceOnUse" />
  </defs>
  <g
     inkscape:label="Layer 1"
     inkscape:groupmode="layer"
     id="layer1">
    <g
       id="g33"
       transform="matrix(1.311536,0,0,1.311536,-26.149359,-41.47424)"
       inkscape:export-filename="pnuts_icon_SMALL.png"
       inkscape:export-xdpi="24.75762"
       inkscape:export-ydpi="24.75762">
      <path
         id="path4"
         style="fill:url(#radialGradient9);fill-opacity:1;stroke:none;stroke-width:0.754449;stroke-linecap:round;stroke-linejoin:round"
         d="m 65.200091,102.62354 c 0,0 -0.295039,0.76287 -0.458598,1.00293 -0.163564,0.24006 -1.645729,0.85006 -1.645729,0.85006 l 0.148047,-0.0368 a 10.552291,14.013442 46.729624 0 0 -5.458107,3.51455 10.552291,14.013442 46.729624 0 0 -5.122762,12.70999 l -0.02616,0.003 c 0,0 0.352235,5.31194 0.985372,5.98729 0.633136,0.67535 6.940293,1.23946 6.940293,1.23946 l -0.0093,-0.0279 a 10.552291,14.013442 46.729624 0 0 11.698449,-4.54468 10.552291,14.013442 46.729624 0 0 5.090739,-9.01192 l 3.48e-4,10e-4 c 0,0 0.08209,-0.34322 0.4345,-0.86073 0.35241,-0.51752 0.847308,-0.68377 0.847308,-0.68377 l -1.103122,-0.20934 -6.66e-4,3.5e-4 a 10.552291,14.013442 46.729624 0 0 -2.298515,-6.52474 10.552291,14.013442 46.729624 0 0 -6.511645,-2.69238 10.552291,14.013442 46.729624 0 0 -3.618538,0.47375 l 0.274749,-0.93097 z" />
      <path
         id="ellipse4"
         style="fill:url(#radialGradient12);stroke:none;stroke-width:0.754449;stroke-linecap:round;stroke-linejoin:round"
         d="m 86.889285,87.032493 c -0.743829,6.66e-4 -1.665296,0.149414 -2.799458,0.510242 -4.536655,1.443319 -6.283383,1.847487 -6.283383,1.847487 l 0.0021,0.0097 a 10.552291,14.013442 46.729624 0 0 -7.515954,4.203151 10.552291,14.013442 46.729624 0 0 -2.970574,17.288767 10.552291,14.013442 46.729624 0 0 17.436807,-1.92186 10.552291,14.013442 46.729624 0 0 5.265302,-11.438158 l 0.0027,0.0013 c 0,0 -0.325936,-7.035238 -0.296092,-8.258941 0.02239,-0.917774 -0.609981,-2.24426 -2.841465,-2.241355 z" />
      <path
         id="path14"
         style="stroke:#000000;stroke-width:1.39913;stroke-linecap:round;stroke-linejoin:round;stroke-dasharray:none;stroke-opacity:1"
         d="m 86.889632,86.921629 c -0.758423,6.66e-4 -1.691242,0.151992 -2.833547,0.515412 -0.749451,0.238431 -1.311342,0.408392 -1.912904,0.59287 0.06253,0.0553 0.119484,0.115101 0.17318,0.179035 0.575673,-0.176876 1.099082,-0.334991 1.806862,-0.560164 1.126024,-0.358237 2.036832,-0.504479 2.766063,-0.505431 1.093816,-0.0013 1.776046,0.31958 2.18696,0.74161 0.410916,0.422037 0.55418,0.953919 0.543639,1.386129 -0.01529,0.626829 0.05961,2.683846 0.137378,4.596 0.07762,1.908336 0.158739,3.656972 0.159063,3.663981 a 0.11060873,0.11060873 0 0 0 -0.0031,0.0047 c 0.128484,3.884829 -1.83177,8.153589 -5.229838,11.353809 -1.797963,1.69205 -3.902182,2.99409 -6.094703,3.77141 -8.66e-4,3.2e-4 -0.002,6.6e-4 -0.0031,0.001 a 0.11060873,0.11060873 0 0 0 -6.66e-4,0.003 c -0.0047,10e-4 -0.527644,0.17725 -0.899296,0.72302 -0.360721,0.52971 -0.451372,0.89688 -0.451372,0.89688 h 0.0038 a 0.11060873,0.11060873 0 0 0 -0.0048,0.006 c -0.558452,3.20491 -2.376186,6.42574 -5.057348,8.94994 -3.39265,3.18132 -7.75433,4.87224 -11.612028,4.51543 a 0.11060873,0.11060873 0 0 0 -0.04924,0.0213 c -0.05491,-0.005 -1.546416,-0.13881 -3.169579,-0.35978 -0.826375,-0.11251 -1.672517,-0.2454 -2.347744,-0.39215 -0.337615,-0.0734 -0.631984,-0.15086 -0.858332,-0.22862 -0.226349,-0.0778 -0.38579,-0.16448 -0.436219,-0.21828 -0.05616,-0.0599 -0.132366,-0.20686 -0.200379,-0.41006 -0.06799,-0.20321 -0.131992,-0.46333 -0.192462,-0.7571 -0.120936,-0.58755 -0.224752,-1.31279 -0.308143,-2.01722 -0.162957,-1.37655 -0.244985,-2.61259 -0.248923,-2.67139 a 0.11060873,0.11060873 0 0 0 0.01962,-0.0757 c -0.662196,-4.15426 1.296914,-9.02928 5.089708,-12.61187 0.09944,-0.093 0.202405,-0.18104 0.30367,-0.27164 -0.0583,-0.0465 -0.116091,-0.093 -0.167675,-0.14668 -0.09589,0.0859 -0.193605,0.16909 -0.287828,0.2572 -3.82659,3.61452 -5.817258,8.52982 -5.157881,12.76886 a 0.11060873,0.11060873 0 0 0 -0.02548,0.0316 c 0,0 0.08716,1.33051 0.254781,2.74644 0.08381,0.70797 0.188075,1.4371 0.311243,2.03547 0.06159,0.2992 0.127928,0.56534 0.200382,0.78189 0.07246,0.21656 0.146101,0.38306 0.248233,0.492 0.107839,0.11505 0.284952,0.19376 0.524707,0.27613 0.239751,0.0824 0.541438,0.16032 0.884148,0.2348 0.685428,0.14896 1.535393,0.28266 2.36496,0.3956 1.65913,0.22587 3.237406,0.36737 3.237406,0.36737 a 0.11060873,0.11060873 0 0 0 0.06989,-0.03 c 3.916676,0.33427 8.294699,-1.3747 11.704985,-4.57258 2.710652,-2.55196 4.551481,-5.80681 5.121387,-9.0639 a 0.11060873,0.11060873 0 0 0 0.0017,-0.002 c 0,0 0.07386,-0.31894 0.417972,-0.82425 0.331501,-0.48681 0.790847,-0.64072 0.790847,-0.64072 a 0.11060873,0.11060873 0 0 0 0.0038,-0.003 c 2.22338,-0.78845 4.352331,-2.10522 6.171483,-3.8172 3.436422,-3.23588 5.426807,-7.55253 5.298696,-11.514605 a 0.11060873,0.11060873 0 0 0 0.0038,-0.0072 c 0,0 -0.08098,-1.759822 -0.15872,-3.67121 -0.07774,-1.911394 -0.151586,-3.983621 -0.137031,-4.580502 0.01185,-0.485564 -0.149447,-1.076302 -0.60699,-1.546229 -0.451652,-0.463871 -1.195302,-0.795357 -2.308497,-0.802553 a 0.11060873,0.11060873 0 0 0 -0.03649,-0.0067 z m -12.083718,3.448109 c -0.675985,0.322186 -1.338259,0.693374 -1.980723,1.109321 0.05067,0.0539 0.09788,0.110871 0.141159,0.171114 0.644106,-0.415681 1.308594,-0.783385 1.985893,-1.103465 -0.05311,-0.05517 -0.101088,-0.114955 -0.146329,-0.17697 z m -4.867293,3.435717 c -2.52904,2.498268 -4.242875,5.608727 -4.793617,8.726495 a 0.11060873,0.11060873 0 0 0 -0.04751,0.052 c 0,0 -0.07363,0.1889 -0.166983,0.40764 -0.09336,0.21874 -0.212089,0.4727 -0.280599,0.57326 -0.0045,0.007 -0.03866,0.0408 -0.08986,0.0771 -0.0513,0.0362 -0.120144,0.0786 -0.199005,0.12291 -0.157767,0.0886 -0.356466,0.18658 -0.550523,0.27716 -0.388115,0.18117 -0.757451,0.33225 -0.757451,0.33225 a 0.11060873,0.11060873 0 0 0 -0.02478,0.0537 c -0.026,0.0109 -0.05151,0.0235 -0.07747,0.0345 0.06685,0.0425 0.127664,0.092 0.187639,0.14322 0.04892,-0.0203 0.09728,-0.0432 0.146324,-0.063 a 0.11060873,0.11060873 0 0 0 0.03684,-0.044 c 0.120373,-0.0504 0.282697,-0.11704 0.5822,-0.25684 0.19693,-0.0919 0.399528,-0.19074 0.565678,-0.28405 0.08308,-0.0466 0.156544,-0.0922 0.217594,-0.13531 0.06105,-0.0431 0.109734,-0.0805 0.145981,-0.13358 0.09504,-0.13952 0.205866,-0.38772 0.300915,-0.61043 0.07652,-0.17927 0.114641,-0.27821 0.136341,-0.33363 a 0.11060873,0.11060873 0 0 0 0.06335,-0.0654 c 0.518151,-3.088738 2.218447,-6.193734 4.7313,-8.686899 -0.04636,-0.05943 -0.08818,-0.121451 -0.126356,-0.186956 z" />
      <path
         style="fill:none;fill-opacity:1;stroke:#000000;stroke-width:0.705114;stroke-linecap:round;stroke-linejoin:round;stroke-opacity:1"
         d="m 58.703388,125.67491 c 0,0 4.389754,0.33768 8.779506,-3.12348 4.389752,-3.46115 5.656027,-8.52625 7.766486,-10.38345 2.110459,-1.85721 6.162538,-3.12348 9.117179,-7.00672 2.954641,-3.88325 2.785805,-10.974383 2.785805,-10.974383"
         id="path16" />
      <path
         style="fill:none;fill-opacity:1;stroke:#000000;stroke-width:0.705114;stroke-linecap:round;stroke-linejoin:round;stroke-opacity:1"
         d="m 64.489042,125.57001 c 0,0 -4.136498,-0.84418 -5.571609,-1.8572 -1.435111,-1.01302 -3.039059,-3.03906 -3.039059,-3.03906"
         id="path18" />
      <path
         style="fill:none;fill-opacity:1;stroke:#000000;stroke-width:0.705114;stroke-linecap:round;stroke-linejoin:round;stroke-opacity:1"
         d="m 67.667972,123.98654 c 0,0 -4.305336,-0.9286 -5.993702,-2.53254 -1.688366,-1.60395 -2.701386,-3.79883 -2.701386,-3.79883"
         id="path19" />
      <path
         style="fill:none;fill-opacity:1;stroke:#000000;stroke-width:0.705114;stroke-linecap:round;stroke-linejoin:round;stroke-opacity:1"
         d="m 71.61515,121.40455 c 0,0 -4.811845,-0.59093 -7.428813,-2.36372 -2.616969,-1.77278 -3.629989,-4.72743 -3.629989,-4.72743"
         id="path20" />
      <path
         style="fill:none;fill-opacity:1;stroke:#000000;stroke-width:0.705114;stroke-linecap:round;stroke-linejoin:round;stroke-opacity:1"
         d="m 79.962322,110.599 c 0,0 -3.967662,0.0844 -6.331373,-1.85721 -2.363714,-1.94162 -3.376734,-4.47417 -3.376734,-4.47417"
         id="path21" />
      <path
         style="fill:none;fill-opacity:1;stroke:#000000;stroke-width:0.705114;stroke-linecap:round;stroke-linejoin:round;stroke-opacity:1"
         d="m 82.499115,108.79725 c 0,0 -3.545571,0.50651 -5.909284,-1.60394 -2.363714,-2.11046 -3.714406,-5.23394 -3.714406,-5.23394"
         id="path22" />
      <path
         style="fill:none;fill-opacity:1;stroke:#000000;stroke-width:0.705114;stroke-linecap:round;stroke-linejoin:round;stroke-opacity:1"
         d="m 85.661801,105.2312 c 0,0 -3.039059,0.67535 -5.233936,-1.01302 -2.194875,-1.68837 -3.967661,-4.1365 -3.967661,-4.1365"
         id="path23" />
      <path
         style="fill:none;fill-opacity:1;stroke:#000000;stroke-width:0.732876;stroke-linecap:round;stroke-linejoin:round;stroke-dasharray:none;stroke-opacity:1"
         d="m 56.790734,124.42312 c 0,0 3.292316,-1.51953 4.389754,-2.19487 1.097437,-0.67535 5.065098,-2.61697 6.415791,-5.23394"
         id="path25" />
      <path
         style="fill:none;fill-opacity:1;stroke:#000000;stroke-width:0.732876;stroke-linecap:round;stroke-linejoin:round;stroke-dasharray:none;stroke-opacity:1"
         d="m 71.623635,111.43294 c 0,0 0.759764,-2.11046 1.688366,-2.70138 0.928602,-0.59093 3.207896,-1.26628 5.740446,-3.37673 2.532549,-2.11046 4.811845,-8.273006 4.811845,-8.273006"
         id="path26" />
    </g>
    <path
       d="m 109.76548,117.07765 h -3.59236 c -0.27528,0 -0.50927,0.0964 -0.70196,0.28904 -0.19269,0.19269 -0.28904,0.42668 -0.28904,0.70196 v 6.15245 c 0,0.27527 -0.0964,0.50926 -0.28904,0.70196 -0.1927,0.19269 -0.42669,0.28904 -0.70196,0.28904 h -6.235033 c -0.275277,0 -0.509263,-0.0964 -0.701957,-0.28904 -0.192694,-0.1927 -0.289041,-0.42669 -0.289041,-0.70196 V 95.977645 c 0,-0.275277 0.09635,-0.509263 0.289041,-0.701957 0.192694,-0.192695 0.42668,-0.289042 0.701957,-0.289042 h 12.635233 c 1.54155,0 2.98676,0.289041 4.33561,0.867124 1.37639,0.578083 2.56008,1.376387 3.55108,2.394913 1.01853,1.018526 1.81683,2.202217 2.39491,3.551077 0.60561,1.34886 0.90842,2.79407 0.90842,4.33562 0,1.54155 -0.24775,2.98676 -0.74325,4.33562 -0.4955,1.32133 -1.25251,2.47749 -2.27104,3.46849 -0.99099,0.96347 -2.2435,1.73425 -3.75753,2.31233 -1.4865,0.55055 -3.23451,0.82583 -5.24404,0.82583 z m 0.28905,-14.49335 h -3.88141 c -0.27528,0 -0.50927,0.0964 -0.70196,0.28904 -0.19269,0.19269 -0.28904,0.42668 -0.28904,0.70196 v 4.87241 c 0,0.27527 0.0964,0.50926 0.28904,0.70196 0.19269,0.19269 0.42668,0.28904 0.70196,0.28904 h 4.4182 c 1.04605,0 1.80306,-0.33033 2.27103,-0.991 0.4955,-0.68819 0.74325,-1.45897 0.74325,-2.31233 0,-0.44045 -0.0826,-0.86713 -0.24775,-1.28004 -0.13763,-0.44045 -0.35785,-0.82584 -0.66066,-1.15617 -0.30281,-0.33033 -0.67443,-0.59185 -1.11487,-0.78454 -0.44045,-0.22022 -0.94971,-0.33033 -1.52779,-0.33033 z m 29.21699,10.90098 H 126.0995 c -0.27528,0 -0.50926,-0.0964 -0.70196,-0.28904 -0.19269,-0.19269 -0.28904,-0.42668 -0.28904,-0.70196 v -5.57436 c 0,-0.30281 0.0963,-0.53679 0.28904,-0.70196 0.1927,-0.19269 0.42668,-0.28904 0.70196,-0.28904 h 13.17202 c 0.27528,0 0.50927,0.0964 0.70196,0.28904 0.1927,0.16517 0.28904,0.39915 0.28904,0.70196 v 5.57436 c 0,0.27528 -0.0963,0.50927 -0.28904,0.70196 -0.19269,0.19269 -0.42668,0.28904 -0.70196,0.28904 z M 172.69579,95.977645 V 124.2211 c 0,0.27527 -0.0964,0.50926 -0.28904,0.70196 -0.19269,0.19269 -0.42668,0.28904 -0.70195,0.28904 h -6.11116 c -0.27528,0 -0.56432,-0.0826 -0.86712,-0.24775 -0.30281,-0.16517 -0.53679,-0.35786 -0.70196,-0.57808 l -10.77711,-15.15402 c -0.16517,-0.22022 -0.3441,-0.3028 -0.53679,-0.24775 -0.16517,0.0275 -0.24775,0.17894 -0.24775,0.45421 v 14.78239 c 0,0.27527 -0.0964,0.50926 -0.28904,0.70196 -0.19269,0.19269 -0.42668,0.28904 -0.70196,0.28904 h -6.15245 c -0.27527,0 -0.50926,-0.0964 -0.70195,-0.28904 -0.19269,-0.1927 -0.28904,-0.42669 -0.28904,-0.70196 V 95.977645 c 0,-0.275277 0.0964,-0.509263 0.28904,-0.701957 0.19269,-0.192695 0.42668,-0.289042 0.70195,-0.289042 h 6.19374 c 0.27528,0 0.56432,0.08258 0.86713,0.24775 0.3028,0.137639 0.53678,0.316569 0.70195,0.536791 L 163.8181,110.9252 c 0.16517,0.22023 0.33033,0.31658 0.4955,0.28905 0.19269,-0.0275 0.28904,-0.17894 0.28904,-0.45421 V 95.977645 c 0,-0.275277 0.0964,-0.509263 0.28904,-0.701957 0.19269,-0.192695 0.42668,-0.289042 0.70196,-0.289042 h 6.11116 c 0.27527,0 0.50926,0.09635 0.70195,0.289042 0.19269,0.192694 0.28904,0.42668 0.28904,0.701957 z m 4.09777,0.04129 c 0,-0.275277 0.0964,-0.509263 0.28904,-0.701957 0.19269,-0.192694 0.42668,-0.289041 0.70196,-0.289041 h 6.23503 c 0.27528,0 0.50927,0.09635 0.70196,0.289041 0.19269,0.192694 0.28904,0.42668 0.28904,0.701957 v 16.723095 c 0,1.07359 0.16517,1.96824 0.4955,2.68396 0.35786,0.68819 0.78454,1.23875 1.28004,1.65166 0.52303,0.38539 1.07358,0.66066 1.65166,0.82583 0.57809,0.16517 1.10111,0.24775 1.56908,0.24775 0.46797,0 0.991,-0.0826 1.56908,-0.24775 0.57809,-0.16517 1.11488,-0.44044 1.61038,-0.82583 0.4955,-0.41291 0.90841,-0.96347 1.23874,-1.65166 0.35787,-0.71572 0.5368,-1.61037 0.5368,-2.68396 V 96.018936 c 0,-0.275277 0.0964,-0.509263 0.28904,-0.701957 0.19269,-0.192694 0.42668,-0.289041 0.70195,-0.289041 h 6.23504 c 0.27527,0 0.50926,0.09635 0.70195,0.289041 0.19269,0.192694 0.28904,0.42668 0.28904,0.701957 v 16.723094 c 0,1.95447 -0.31657,3.73001 -0.9497,5.32662 -0.60561,1.59661 -1.4865,2.95923 -2.64267,4.08787 -1.15616,1.12863 -2.54631,2.00952 -4.17045,2.64266 -1.62413,0.60561 -3.4272,0.90842 -5.4092,0.90842 -1.98199,0 -3.78506,-0.30281 -5.4092,-0.90842 -1.62413,-0.63314 -3.01428,-1.51403 -4.17045,-2.64266 -1.15616,-1.12864 -2.05081,-2.49126 -2.68395,-4.08787 -0.63314,-1.59661 -0.94971,-3.37215 -0.94971,-5.32662 z m 53.04932,6.565365 h -5.78083 c -0.27527,0 -0.50926,0.0964 -0.70195,0.28904 -0.1927,0.19269 -0.28905,0.42668 -0.28905,0.70196 v 20.6458 c 0,0.27527 -0.0964,0.50926 -0.28904,0.70196 -0.16517,0.19269 -0.39915,0.28904 -0.70195,0.28904 h -6.19374 c -0.27528,0 -0.50927,-0.0964 -0.70196,-0.28904 -0.19269,-0.1927 -0.28904,-0.42669 -0.28904,-0.70196 v -20.6458 c 0,-0.27528 -0.0964,-0.50927 -0.28904,-0.70196 -0.16517,-0.19269 -0.39915,-0.28904 -0.70196,-0.28904 h -5.86341 c -0.27527,0 -0.50926,-0.0964 -0.70196,-0.28904 -0.19269,-0.19269 -0.28904,-0.42668 -0.28904,-0.70196 v -5.615656 c 0,-0.275277 0.0964,-0.509263 0.28904,-0.701957 0.1927,-0.192695 0.42669,-0.289042 0.70196,-0.289042 h 21.80197 c 0.3028,0 0.53678,0.09635 0.70195,0.289042 0.19269,0.192694 0.28904,0.42668 0.28904,0.701957 v 5.615656 c 0,0.27528 -0.0964,0.50927 -0.28904,0.70196 -0.16517,0.19269 -0.39915,0.28904 -0.70195,0.28904 z m 8.40296,12.26361 c 0,-1.77143 2.95923,1.72048 4.4182,2.27103 1.45897,0.55056 2.8216,0.82584 4.08787,0.82584 1.21122,0 2.1334,-0.16517 2.76654,-0.4955 0.63313,-0.35786 0.9497,-0.88089 0.9497,-1.56908 0,-0.35787 -0.13764,-0.63315 -0.41291,-0.82584 -0.27528,-0.22022 -0.64691,-0.39915 -1.11488,-0.53679 -0.44044,-0.13764 -0.96347,-0.24775 -1.56908,-0.33033 -0.60561,-0.0826 -1.22498,-0.19269 -1.85812,-0.33033 -0.60561,-0.11011 -1.32133,-0.23399 -2.14716,-0.37163 -0.79831,-0.16517 -1.62414,-0.38539 -2.4775,-0.66066 -0.85336,-0.30281 -1.70672,-0.67443 -2.56008,-1.11488 -0.82583,-0.44044 -1.56907,-1.00476 -2.22974,-1.69295 -0.66067,-0.68819 -1.19746,-1.50026 -1.61038,-2.43621 -0.38539,-0.96347 -0.57808,-2.0921 -0.57808,-3.38591 0,-1.89941 0.37163,-3.46849 1.11488,-4.70724 0.74325,-1.238748 1.67919,-2.215983 2.80782,-2.931704 1.15617,-0.743249 2.43621,-1.252512 3.84012,-1.527789 1.40391,-0.302805 2.76654,-0.454207 4.08787,-0.454207 2.31233,0 4.37691,0.344096 6.19374,1.032289 1.84436,0.660666 3.60614,1.637901 5.28533,2.931704 0.22022,0.192694 0.34409,0.42668 0.37162,0.701957 0.0275,0.275277 -0.0413,0.523027 -0.20646,0.743249 l -3.22074,4.583371 c -0.16517,0.22022 -0.38539,0.35786 -0.66067,0.41291 -0.27527,0.0551 -0.52302,1e-5 -0.74325,-0.16516 -1.40391,-0.88089 -2.71148,-1.50026 -3.9227,-1.85812 -1.21122,-0.38539 -2.32609,-0.57809 -3.34462,-0.57809 -0.30281,0 -0.66067,0.0138 -1.07358,0.0413 -0.38539,0 -0.75701,0.0551 -1.11487,0.16517 -0.35786,0.0826 -0.66067,0.23399 -0.90842,0.45421 -0.22022,0.22022 -0.33033,0.52302 -0.33033,0.90841 0,0.38539 0.28904,0.72949 0.86712,1.03229 0.57809,0.30281 1.23875,0.56432 1.982,0.78454 0.74325,0.22023 1.45897,0.39916 2.14716,0.53679 0.68819,0.11011 1.12864,0.17893 1.32133,0.20646 0.991,0.19269 2.07835,0.48174 3.26204,0.86713 1.18369,0.35786 2.2848,0.90841 3.30333,1.65166 1.04605,0.71572 1.91318,1.66543 2.60137,2.84912 0.71572,1.15617 1.07358,2.61514 1.07358,4.37691 0,1.65167 -0.28904,3.08311 -0.86712,4.29433 -0.57809,1.18369 -1.39016,2.16093 -2.43621,2.9317 -1.01853,0.77077 -2.25727,1.34886 -3.71624,1.73425 -1.43145,0.35786 -3.02806,0.53679 -4.78983,0.53679 -1.43144,0 -2.76653,-0.12388 -4.00528,-0.37163 -1.23875,-0.22022 -2.39491,-0.53679 -3.4685,-0.9497 -1.07358,-0.41292 -2.07834,-0.89466 -3.01428,-1.44521 -0.90842,-0.57808 -1.74802,-1.18369 -2.51879,-1.81683 -0.22022,-0.16517 -0.3441,-0.38539 -0.37163,-0.66067 -0.0275,-0.3028 0.0413,-0.56431 0.20646,-0.78454 l 3.17946,-4.58336 c 0.16517,-0.22023 0.38539,-0.35787 0.66066,-0.41292 0.27528,-0.0551 0.74325,0.3836 0.74325,0.12388 z"
       id="text26"
       style="font-size:41.2916px;line-height:0;font-family:Heavitas;-inkscape-font-specification:Heavitas;letter-spacing:2.27542px;fill:url(#linearGradient36);stroke:#000000;stroke-width:1.999;stroke-linecap:round;stroke-linejoin:round;fill-opacity:1"
       aria-label="P-NUTS"
       sodipodi:nodetypes="sssssssssssssscccscccssssssssscscscsssssscsscsssssssssscccsssssssssssccccssssssssssssssccsssccsssssssscscscssssssssscssssscsssssssscsscsssscsccsccccscssccsccsccsccscccssscccccscccscscccccsss" />
    <path
       id="path1"
       style="stroke-linecap:round;stroke-linejoin:round"
       d="m 101.11114,160.28085 c -0.911,5.7e-4 -1.649054,0.73955 -1.648477,1.65055 l 0,11.06454 -1.74563,-1.74614 c -0.644104,-0.64378 -1.688054,-0.64378 -2.332158,0 -0.64377,0.6441 -0.64377,1.68805 0,2.33215 l 4.560446,4.56252 c 0.03212,0.0294 0.0654,0.0575 0.09974,0.0842 0.0137,0.0119 0.0277,0.0236 0.0418,0.0351 0.11479,0.0917 0.24131,0.16763 0.37621,0.22582 0.0152,0.006 0.0306,0.012 0.046,0.0176 0.14096,0.057 0.28913,0.0942 0.44028,0.11059 0.15547,0.0147 0.31224,0.007 0.46561,-0.0222 0.008,-0.001 0.0169,-0.003 0.0253,-0.004 0.14639,-0.0308 0.2879,-0.0814 0.42065,-0.15038 0.0158,-0.008 0.0315,-0.016 0.047,-0.0243 0.12751,-0.0703 0.24515,-0.1572 0.34985,-0.25839 0.007,-0.005 0.0131,-0.01 0.0196,-0.0145 l 4.56251,-4.56252 c 0.64377,-0.6441 0.64377,-1.68805 0,-2.33215 -0.64434,-0.64515 -1.68988,-0.64515 -2.33422,0 l -1.74408,1.74408 0,-11.06248 c 5.8e-4,-0.91181 -0.73874,-1.65113 -1.65055,-1.65055 z"
       sodipodi:nodetypes="ccccccccccccccccccccccccc"
       inkscape:export-filename="import_icon.svg"
       inkscape:export-xdpi="58.269882"
       inkscape:export-ydpi="58.269882" />
    <path
       id="rect3"
       style="stroke-linecap:round;stroke-linejoin:round"
       d="m 94.074361,165.03334 c -2.041017,0 -3.736723,1.69312 -3.736723,3.73414 l 0,10.71206 c 0,2.04102 1.695706,3.73672 3.736723,3.73672 H 108.1505 c 2.04102,0 3.73621,-1.6957 3.73621,-3.73672 l 0,-10.71206 c 0,-2.04102 -1.69519,-3.73414 -3.73621,-3.73414 h -4.17183 v 3.2985 h 4.17183 c 0.27042,0 0.43719,0.16521 0.43719,0.43564 l 0,10.71206 c 0,0.27043 -0.16677,0.4377 -0.43719,0.4377 H 94.074361 c -0.270425,0 -0.435632,-0.16727 -0.435632,-0.4377 l 0,-10.71206 c 0,-0.27043 0.165207,-0.43564 0.435632,-0.43564 H 98.2462 v -3.2985 z"
       sodipodi:nodetypes="ssssssssccssssssssccs" />
    <path
       id="path5"
       style="stroke-linecap:round;stroke-linejoin:round"
       d="m 143.68694,174.06316 c 0.911,-5.7e-4 1.64906,-0.73955 1.64848,-1.65055 v -11.06454 l 1.74563,1.74614 c 0.6441,0.64378 1.68805,0.64378 2.33216,0 0.64377,-0.6441 0.64377,-1.68805 0,-2.33215 l -4.56045,-4.56252 c -0.0321,-0.0294 -0.0654,-0.0575 -0.0997,-0.0842 -0.0137,-0.0119 -0.0277,-0.0236 -0.0418,-0.0351 -0.11479,-0.0917 -0.24131,-0.16763 -0.37621,-0.22582 -0.0152,-0.006 -0.0306,-0.012 -0.046,-0.0176 -0.14096,-0.057 -0.28913,-0.0942 -0.44028,-0.11059 -0.15547,-0.0147 -0.31224,-0.007 -0.46561,0.0222 -0.008,10e-4 -0.0169,0.003 -0.0253,0.004 -0.14639,0.0308 -0.2879,0.0814 -0.42065,0.15038 -0.0158,0.008 -0.0315,0.016 -0.047,0.0243 -0.12751,0.0703 -0.24515,0.1572 -0.34985,0.25839 -0.007,0.005 -0.0131,0.01 -0.0196,0.0145 l -4.56251,4.56252 c -0.64377,0.6441 -0.64377,1.68805 0,2.33215 0.64434,0.64515 1.68988,0.64515 2.33422,0 l 1.74408,-1.74408 v 11.06248 c -5.8e-4,0.91181 0.73874,1.65113 1.65055,1.65055 z"
       sodipodi:nodetypes="ccccccccccccccccccccccccc"
       inkscape:export-filename="export_icon.svg"
       inkscape:export-xdpi="58.269882"
       inkscape:export-ydpi="58.269882" />
    <path
       id="path6"
       style="stroke-linecap:round;stroke-linejoin:round"
       d="m 136.64774,165.03334 c -2.04102,0 -3.73672,1.69312 -3.73672,3.73414 v 10.71206 c 0,2.04102 1.6957,3.73672 3.73672,3.73672 h 14.07614 c 2.04102,0 3.73621,-1.6957 3.73621,-3.73672 v -10.71206 c 0,-2.04102 -1.69519,-3.73414 -3.73621,-3.73414 h -4.17183 v 3.2985 h 4.17183 c 0.27042,0 0.43719,0.16521 0.43719,0.43564 v 10.71206 c 0,0.27043 -0.16677,0.4377 -0.43719,0.4377 h -14.07614 c -0.27043,0 -0.43563,-0.16727 -0.43563,-0.4377 v -10.71206 c 0,-0.27043 0.1652,-0.43564 0.43563,-0.43564 h 4.17184 v -3.2985 z"
       sodipodi:nodetypes="ssssssssccssssssssccs" />
  </g>
</svg>
