<?xml version="1.0" encoding="UTF-8" standalone="no"?>
<!-- Created with Inkscape (http://www.inkscape.org/) -->

<svg
   width="30.435061mm"
   height="30.435045mm"
   viewBox="0 0 30.435061 30.435045"
   version="1.1"
   id="svg1"
   xml:space="preserve"
   xmlns="http://www.w3.org/2000/svg"
   xmlns:svg="http://www.w3.org/2000/svg"><defs
     id="defs1" /><g
     id="layer1"
     transform="translate(-168.26972,-242.4502)"><g
       id="g32"><path
         id="path6"
         style="opacity:1;fill:#ffffff;fill-opacity:1;stroke:#ffffff;stroke-width:0.264583;stroke-linecap:round;stroke-linejoin:round;stroke-dasharray:none;stroke-opacity:1"
         d="m 183.48699,247.14409 a 10.523738,10.523738 0 0 0 -10.52339,10.5239 10.523738,10.523738 0 0 0 10.52339,10.52339 10.523738,10.523738 0 0 0 10.52391,-10.52339 10.523738,10.523738 0 0 0 -10.52391,-10.5239 z m 0,5.70249 a 4.8215251,4.8215251 0 0 1 4.82193,4.82141 4.8215251,4.8215251 0 0 1 -4.82193,4.82141 4.8215251,4.8215251 0 0 1 -4.82141,-4.82141 4.8215251,4.8215251 0 0 1 4.82141,-4.82141 z" /><path
         id="rect12"
         style="opacity:1;fill:#ffffff;stroke:#ffffff;stroke-width:1.26207;stroke-linecap:round;stroke-linejoin:round;stroke-dasharray:none"
         d="m 181.25936,243.08124 h 4.45571 l 0.34707,8.12579 h -5.14985 z" /><path
         id="path26"
         style="opacity:1;fill:#ffffff;stroke:#ffffff;stroke-width:1.26207;stroke-linecap:round;stroke-linejoin:round;stroke-dasharray:none"
         d="m 198.07374,255.43984 v 4.45571 l -8.12579,0.34707 v -5.14985 z" /><path
         id="path27"
         style="opacity:1;fill:#ffffff;stroke:#ffffff;stroke-width:1.26207;stroke-linecap:round;stroke-linejoin:round;stroke-dasharray:none"
         d="m 192.2261,245.77817 3.15066,3.15066 -5.50039,5.99122 -3.64149,-3.64149 z" /><path
         id="path28"
         style="opacity:1;fill:#ffffff;stroke:#ffffff;stroke-width:1.26207;stroke-linecap:round;stroke-linejoin:round;stroke-dasharray:none"
         d="m 171.59769,248.92888 3.15065,-3.15066 5.99122,5.50039 -3.64149,3.64149 z" /><path
         id="path29"
         style="opacity:1;fill:#ffffff;stroke:#ffffff;stroke-width:1.26207;stroke-linecap:round;stroke-linejoin:round;stroke-dasharray:none"
         d="m 168.90076,259.89562 -1e-5,-4.4557 8.1258,-0.34707 v 5.14985 z" /><path
         id="path30"
         style="opacity:1;fill:#ffffff;stroke:#ffffff;stroke-width:1.26207;stroke-linecap:round;stroke-linejoin:round;stroke-dasharray:none"
         d="m 174.7484,269.55729 -3.15067,-3.15065 5.5004,-5.99122 3.64149,3.64149 z" /><path
         id="path31"
         style="opacity:1;fill:#ffffff;stroke:#ffffff;stroke-width:1.26207;stroke-linecap:round;stroke-linejoin:round;stroke-dasharray:none"
         d="m 185.71513,272.25422 -4.4557,1e-5 -0.34706,-8.1258 h 5.14984 z" /><path
         id="path32"
         style="opacity:1;fill:#ffffff;stroke:#ffffff;stroke-width:1.26207;stroke-linecap:round;stroke-linejoin:round;stroke-dasharray:none"
         d="m 195.3768,266.40659 -3.15065,3.15066 -5.99121,-5.5004 3.64148,-3.64149 z" /></g></g></svg>
