<?xml version="1.0" encoding="UTF-8" standalone="no"?>
<!-- Created with Inkscape (http://www.inkscape.org/) -->

<svg
   version="1.1"
   id="svg1"
   width="1056"
   height="384"
   viewBox="0 0 1056 384"
   sodipodi:docname="SMFA_01_Brand_Orange_Blue_Green_Pink.eps"
   xmlns:inkscape="http://www.inkscape.org/namespaces/inkscape"
   xmlns:sodipodi="http://sodipodi.sourceforge.net/DTD/sodipodi-0.dtd"
   xmlns="http://www.w3.org/2000/svg"
   xmlns:svg="http://www.w3.org/2000/svg">
  <defs
     id="defs1" />
  <sodipodi:namedview
     id="namedview1"
     pagecolor="#ffffff"
     bordercolor="#000000"
     borderopacity="0.25"
     inkscape:showpageshadow="2"
     inkscape:pageopacity="0.0"
     inkscape:pagecheckerboard="0"
     inkscape:deskcolor="#d1d1d1">
    <inkscape:page
       x="0"
       y="0"
       inkscape:label="1"
       id="page1"
       width="1056"
       height="384"
       margin="0"
       bleed="0" />
  </sodipodi:namedview>
  <g
     id="g1"
     inkscape:groupmode="layer"
     inkscape:label="1">
    <g
       id="group-R5">
      <path
         id="path2"
         d="m 3623.92,2275.36 -403.9,-911.95 h -3.36 v 506.77 c 0,250.94 -192.9,433.07 -458.68,433.07 -265.77,0 -458.69,-182.13 -458.69,-433.07 V 607.719 h 305.45 V 1875.33 c 0,111.03 96.02,132.76 153.24,132.76 57.23,0 153.24,-21.73 153.24,-132.76 V 607.719 h 273.8 l 457.06,1034.711 h 4.77 V 607.719 h 315.24 V 2275.36 h -338.17"
         style="fill:#3c7ec9;fill-opacity:1;fill-rule:nonzero;stroke:none"
         transform="matrix(0.13333333,0,0,-0.13333333,0,384)" />
      <path
         id="path3"
         d="m 5625.89,1324.26 v 169.16 h -69.38 v 41.87 h 190.36 v -41.87 h -70.39 v -169.16 h -50.59"
         style="fill:#3c7ec9;fill-opacity:1;fill-rule:nonzero;stroke:none"
         transform="matrix(0.13333333,0,0,-0.13333333,0,384)" />
      <path
         id="path4"
         d="m 5769.43,1407.33 v 127.96 H 5820 v -120.58 c 0,-33.85 12.06,-51.6 42.88,-51.6 31.15,0 43.21,17.75 43.21,51.26 v 120.92 h 50.58 v -127.96 c 0,-61.63 -40.87,-87.09 -93.79,-87.09 -52.59,0 -93.45,25.46 -93.45,87.09"
         style="fill:#3c7ec9;fill-opacity:1;fill-rule:nonzero;stroke:none"
         transform="matrix(0.13333333,0,0,-0.13333333,0,384)" />
      <path
         id="path5"
         d="m 5988.08,1324.26 v 211.03 h 149.55 v -41.87 h -98.96 v -46.9 h 70.92 v -41.54 h -70.92 v -80.72 h -50.59"
         style="fill:#3c7ec9;fill-opacity:1;fill-rule:nonzero;stroke:none"
         transform="matrix(0.13333333,0,0,-0.13333333,0,384)" />
      <path
         id="path6"
         d="m 6230.15,1324.26 v 169.16 h -69.38 v 41.87 h 190.36 v -41.87 h -70.39 v -169.16 h -50.59"
         style="fill:#3c7ec9;fill-opacity:1;fill-rule:nonzero;stroke:none"
         transform="matrix(0.13333333,0,0,-0.13333333,0,384)" />
      <path
         id="path7"
         d="m 6406.82,1400.95 c 2.01,-29.12 23.78,-40.86 49.9,-40.86 22.45,0 36.52,8.73 36.52,22.78 0,14.09 -12.4,17.42 -30.81,21.11 l -39.52,7.04 c -33.51,6.37 -57.29,25.12 -57.29,60.96 0,41.53 32.49,67.33 83.74,67.33 57.28,0 88.44,-28.48 89.44,-75.38 l -46.9,-1.31 c -1.34,24.76 -18.42,36.84 -42.88,36.84 -21.43,0 -33.5,-8.73 -33.5,-23.12 0,-12.08 9.38,-16.41 24.8,-19.42 l 39.52,-7.05 c 43.21,-7.71 62.97,-29.12 62.97,-63.64 0,-43.55 -37.84,-65.99 -86.09,-65.99 -56.26,0 -96.47,27.8 -96.47,79.04 l 46.57,1.67"
         style="fill:#3c7ec9;fill-opacity:1;fill-rule:nonzero;stroke:none"
         transform="matrix(0.13333333,0,0,-0.13333333,0,384)" />
      <path
         id="path8"
         d="m 4159.74,2275.36 h 1047.43 v -297.79 h -725.82 v -411.45 h 557.69 V 1290.35 H 4481.35 V 607.719 H 4159.74 V 2275.36"
         style="fill:#2eb563;fill-opacity:1;fill-rule:nonzero;stroke:none"
         transform="matrix(0.13333333,0,0,-0.13333333,0,384)" />
      <path
         id="path9"
         d="m 6054.49,896.281 c -301.07,0 -545.15,244.079 -545.15,545.159 0,301.08 244.08,545.15 545.15,545.15 301.09,0 545.16,-244.07 545.16,-545.15 0,-301.08 -244.07,-545.159 -545.16,-545.159 z m 539.36,1379.079 v -174.15 c -147.48,121.36 -336.35,194.25 -542.26,194.25 -471.66,0 -854.02,-382.36 -854.02,-854.02 0,-471.659 382.36,-854.018 854.02,-854.018 205.91,0 394.78,72.887 542.26,194.238 V 607.781 H 6915.8 V 2275.36 h -321.95"
         style="fill:#f0399d;fill-opacity:1;fill-rule:nonzero;stroke:none"
         transform="matrix(0.13333333,0,0,-0.13333333,0,384)" />
      <path
         id="path10"
         d="m 1248.19,1244.79 c 37.64,-242.25 108.19,-364.571 326.94,-364.571 171.71,0 294.01,61.16 294.01,190.531 0,129.35 -56.44,174.04 -425.73,289.29 -355.16,110.57 -470.414,261.1 -470.414,475.13 0,242.26 197.584,468.08 555.094,468.08 289.31,0 552.74,-134.07 611.54,-449.26 l -308.12,-77.63 c -39.98,127.03 -117.61,232.88 -303.42,232.88 -169.35,0 -242.26,-72.94 -242.26,-171.72 0,-98.78 54.1,-122.28 418.66,-246.97 371.64,-127.01 475.12,-258.73 475.12,-498.64 0,-286.941 -230.5,-505.691 -604.48,-505.691 -366.92,0 -611.536,190.531 -660.927,585.661 l 333.987,72.91"
         style="fill:#f14b3a;fill-opacity:1;fill-rule:nonzero;stroke:none"
         transform="matrix(0.13333333,0,0,-0.13333333,0,384)" />
    </g>
  </g>
</svg>
